<svg width="40" height="40" viewBox="0 0 40 40" fill="none" xmlns="http://www.w3.org/2000/svg">
<path d="M20 4C15.658 4 15.112 4.02 13.406 4.096C11.7 4.176 10.538 4.444 9.52 4.84C8.45169 5.24065 7.48428 5.8708 6.686 6.686C5.8708 7.48428 5.24065 8.45169 4.84 9.52C4.444 10.536 4.174 11.7 4.096 13.4C4.02 15.11 4 15.654 4 20.002C4 24.346 4.02 24.89 4.096 26.596C4.176 28.3 4.444 29.462 4.84 30.48C5.25 31.532 5.796 32.424 6.686 33.314C7.574 34.204 8.466 34.752 9.518 35.16C10.538 35.556 11.698 35.826 13.402 35.904C15.11 35.98 15.654 36 20 36C24.346 36 24.888 35.98 26.596 35.904C28.298 35.824 29.464 35.556 30.482 35.16C31.5496 34.7591 32.5163 34.129 33.314 33.314C34.204 32.424 34.75 31.532 35.16 30.48C35.554 29.462 35.824 28.3 35.904 26.596C35.98 24.89 36 24.346 36 20C36 15.654 35.98 15.11 35.904 13.402C35.824 11.7 35.554 10.536 35.16 9.52C34.7593 8.45169 34.1292 7.48428 33.314 6.686C32.5157 5.8708 31.5483 5.24065 30.48 4.84C29.46 4.444 28.296 4.174 26.594 4.096C24.886 4.02 24.344 4 19.996 4H20ZM18.566 6.884H20.002C24.274 6.884 24.78 6.898 26.466 6.976C28.026 7.046 28.874 7.308 29.438 7.526C30.184 7.816 30.718 8.164 31.278 8.724C31.838 9.284 32.184 9.816 32.474 10.564C32.694 11.126 32.954 11.974 33.024 13.534C33.102 15.22 33.118 15.726 33.118 19.996C33.118 24.266 33.102 24.774 33.024 26.46C32.954 28.02 32.692 28.866 32.474 29.43C32.2157 30.1238 31.8065 30.7516 31.276 31.268C30.716 31.828 30.184 32.174 29.436 32.464C28.876 32.684 28.028 32.944 26.466 33.016C24.78 33.092 24.274 33.11 20.002 33.11C15.73 33.11 15.222 33.092 13.536 33.016C11.976 32.944 11.13 32.684 10.566 32.464C9.87167 32.2065 9.2432 31.798 8.726 31.268C8.19455 30.7512 7.78466 30.1227 7.526 29.428C7.308 28.866 7.046 28.018 6.976 26.458C6.9 24.772 6.884 24.266 6.884 19.992C6.884 15.718 6.9 15.216 6.976 13.53C7.048 11.97 7.308 11.122 7.528 10.558C7.818 9.812 8.166 9.278 8.726 8.718C9.286 8.158 9.818 7.812 10.566 7.522C11.13 7.302 11.976 7.042 13.536 6.97C15.012 6.902 15.584 6.882 18.566 6.88V6.884ZM28.542 9.54C28.2899 9.54 28.0402 9.58966 27.8072 9.68615C27.5743 9.78264 27.3626 9.92407 27.1844 10.1024C27.0061 10.2806 26.8646 10.4923 26.7682 10.7252C26.6717 10.9582 26.622 11.2079 26.622 11.46C26.622 11.7121 26.6717 11.9618 26.7682 12.1948C26.8646 12.4277 27.0061 12.6394 27.1844 12.8176C27.3626 12.9959 27.5743 13.1374 27.8072 13.2338C28.0402 13.3303 28.2899 13.38 28.542 13.38C29.0512 13.38 29.5396 13.1777 29.8996 12.8176C30.2597 12.4576 30.462 11.9692 30.462 11.46C30.462 10.9508 30.2597 10.4624 29.8996 10.1024C29.5396 9.74229 29.0512 9.54 28.542 9.54ZM20.002 11.784C18.9121 11.767 17.8298 11.967 16.818 12.3723C15.8061 12.7776 14.885 13.3801 14.1083 14.1448C13.3316 14.9096 12.7147 15.8211 12.2937 16.8265C11.8726 17.8319 11.6558 18.911 11.6558 20.001C11.6558 21.091 11.8726 22.1701 12.2937 23.1755C12.7147 24.1809 13.3316 25.0924 14.1083 25.8572C14.885 26.6219 15.8061 27.2244 16.818 27.6297C17.8298 28.035 18.9121 28.235 20.002 28.218C22.1591 28.1843 24.2164 27.3038 25.73 25.7665C27.2435 24.2292 28.0918 22.1583 28.0918 20.001C28.0918 17.8437 27.2435 15.7728 25.73 14.2355C24.2164 12.6982 22.1591 11.8177 20.002 11.784ZM20.002 14.666C20.7025 14.666 21.3961 14.804 22.0432 15.072C22.6904 15.3401 23.2784 15.733 23.7737 16.2283C24.269 16.7236 24.6619 17.3116 24.93 17.9588C25.198 18.6059 25.336 19.2995 25.336 20C25.336 20.7005 25.198 21.3941 24.93 22.0412C24.6619 22.6884 24.269 23.2764 23.7737 23.7717C23.2784 24.267 22.6904 24.6599 22.0432 24.928C21.3961 25.196 20.7025 25.334 20.002 25.334C18.5873 25.334 17.2306 24.772 16.2303 23.7717C15.23 22.7714 14.668 21.4147 14.668 20C14.668 18.5853 15.23 17.2286 16.2303 16.2283C17.2306 15.228 18.5873 14.666 20.002 14.666Z" fill="#F96237"/>
</svg>
