<svg width="46" height="47" viewBox="0 0 46 47" fill="none" xmlns="http://www.w3.org/2000/svg">
<path d="M44.9547 23.5008C44.9561 30.9318 39.075 36.9571 31.8168 36.9585C24.56 36.9613 18.6754 30.9375 18.6733 23.5072V23.5001C18.6706 16.0677 24.5537 10.0432 31.8105 10.041C39.0674 10.0389 44.9526 16.0627 44.9547 23.4937C44.9547 23.4937 44.9547 23.498 44.9547 23.5008Z" fill="#FFB600"/>
<path d="M31.8105 10.042C39.0674 10.0399 44.9526 16.063 44.9547 23.4947C44.9547 23.4947 44.9547 23.4989 44.9547 23.5018C44.9561 30.9328 39.075 36.958 31.8168 36.9595C24.5599 36.9623 18.6754 30.9385 18.6733 23.5082" fill="#F7981D"/>
<path d="M31.8105 10.042C39.0674 10.0399 44.9526 16.063 44.9547 23.4947C44.9547 23.4947 44.9547 23.4989 44.9547 23.5018C44.9561 30.9328 39.0751 36.958 31.8168 36.9595" fill="#FF8500"/>
<path d="M14.1024 10.0459C6.88741 10.0936 1.04541 16.1032 1.04541 23.5021C1.04541 30.9303 6.93271 36.9584 14.1868 36.9584C17.5894 36.9584 20.6937 35.6289 23.0285 33.4519V33.4505H23.0299C23.5088 33.0047 23.9541 32.5233 24.3646 32.0099H21.6729C21.3133 31.5669 20.9864 31.1033 20.693 30.6248H25.3362C25.6192 30.1626 25.8736 29.6805 26.1029 29.1842H19.9263C19.7151 28.722 19.5332 28.2499 19.3778 27.7713H26.6514C27.0898 26.429 27.3274 24.994 27.3274 23.5036C27.3274 22.5137 27.2222 21.5502 27.025 20.6216H18.991C19.0914 20.1438 19.2161 19.6709 19.366 19.2088H26.6423C26.4799 18.7146 26.2904 18.2346 26.0764 17.7674H19.9249C20.1466 17.2832 20.3989 16.8103 20.6791 16.3546H25.3188C25.01 15.8511 24.6678 15.3697 24.2998 14.9147H21.712C22.112 14.4326 22.5532 13.9782 23.0299 13.5559C20.6951 11.3776 17.5915 10.0487 14.1868 10.0487C14.1575 10.0459 14.1296 10.0459 14.1024 10.0459Z" fill="#FF5050"/>
<path d="M1.04541 23.5042C1.04541 30.9323 6.93271 36.9604 14.1868 36.9604C17.5894 36.9604 20.6937 35.6309 23.0285 33.4539V33.4525H23.0299C23.5088 33.0067 23.9541 32.5253 24.3646 32.0119H21.6729C21.3133 31.5689 20.9864 31.1053 20.693 30.6268H25.3362C25.6192 30.1646 25.8736 29.6825 26.1029 29.1862H19.9263C19.7151 28.724 19.5332 28.2519 19.3778 27.7733H26.6514C27.0898 26.431 27.3274 24.9961 27.3274 23.5056C27.3274 22.5157 27.2222 21.5522 27.025 20.6236H18.991C19.0914 20.1458 19.2161 19.673 19.366 19.2108H26.6423C26.4799 18.7166 26.2904 18.2366 26.0764 17.7695H19.9249C20.1466 17.2852 20.3989 16.8124 20.6791 16.3566H25.3188C25.01 15.8531 24.6678 15.3717 24.2998 14.9167H21.712C22.112 14.4346 22.5532 13.9803 23.0299 13.558C20.6951 11.3796 17.5915 10.0508 14.1868 10.0508C14.1575 10.0508 14.1296 10.0508 14.1024 10.0508" fill="#E52836"/>
<path d="M14.1869 36.9565C17.5895 36.9565 20.6938 35.627 23.0286 33.45V33.4486H23.03C23.5088 33.0028 23.9542 32.5214 24.3647 32.008H21.673C21.3134 31.565 20.9865 31.1014 20.6931 30.6229H25.3363C25.6193 30.1607 25.8737 29.6786 26.103 29.1823H19.9264C19.7152 28.7201 19.5333 28.248 19.3779 27.7694H26.6515C27.0899 26.4271 27.3275 24.9922 27.3275 23.5017C27.3275 22.5118 27.2223 21.5483 27.0251 20.6197H18.9911C19.0914 20.1419 19.2162 19.6691 19.3661 19.2069H26.6424C26.48 18.7127 26.2904 18.2327 26.0765 17.7656H19.925C20.1467 17.2813 20.399 16.8085 20.6791 16.3527H25.3189C25.0101 15.8492 24.6679 15.3678 24.2999 14.9128H21.7121C22.1121 14.4307 22.5533 13.9764 23.03 13.5541C20.6952 11.3757 17.5916 10.0469 14.1869 10.0469C14.1576 10.0469 14.1297 10.0469 14.1025 10.0469" fill="#CB2026"/>
<path d="M18.9121 26.9267L19.0871 25.7089C18.9909 25.7089 18.8501 25.751 18.7253 25.751C18.2396 25.751 18.1852 25.4853 18.2166 25.2902L18.6097 22.8056H19.3498L19.529 21.4576H18.8313L18.9742 20.6201H17.574C17.5433 20.6515 16.748 25.3308 16.748 25.9005C16.748 26.7444 17.2094 27.1204 17.8625 27.1147C18.3727 27.109 18.772 26.9644 18.9121 26.9267Z" fill="#DFDFDF"/>
<path d="M19.3555 24.6048C19.3555 26.63 20.6602 27.1114 21.7726 27.1114C22.7992 27.1114 23.2494 26.8757 23.2494 26.8757L23.4969 25.4942C23.4969 25.4942 22.7156 25.8474 22.0102 25.8474C20.5083 25.8474 20.7717 24.7002 20.7717 24.7002H23.6153C23.6153 24.7002 23.7993 23.7716 23.7993 23.3927C23.7993 22.4492 23.3393 21.2998 21.8039 21.2998C20.396 21.2984 19.3555 22.8508 19.3555 24.6048ZM21.8095 22.5809C22.5985 22.5809 22.4528 23.4896 22.4528 23.5629H20.8993C20.8986 23.4696 21.0449 22.5809 21.8095 22.5809Z" fill="#DFDFDF"/>
<path d="M30.6678 26.9266L30.918 25.3627C30.918 25.3627 30.2322 25.7174 29.7611 25.7174C28.7686 25.7174 28.3706 24.9397 28.3706 24.1073C28.3706 22.4153 29.2244 21.4838 30.1751 21.4838C30.8881 21.4838 31.4603 21.8947 31.4603 21.8947L31.6889 20.3772C31.6889 20.3772 30.84 20.0254 30.113 20.0254C28.4974 20.0254 26.9258 21.4596 26.9258 24.155C26.9258 25.941 27.7754 27.1217 29.4439 27.1217C29.9165 27.1217 30.6678 26.9266 30.6678 26.9266Z" fill="#DFDFDF"/>
<path d="M11.2164 21.3203C10.2567 21.3203 9.52206 21.6344 9.52206 21.6344L9.31855 22.8692C9.31855 22.8692 9.92631 22.6171 10.8435 22.6171C11.3635 22.6171 11.7447 22.6769 11.7447 23.1106C11.7447 23.3741 11.6987 23.4716 11.6987 23.4716C11.6987 23.4716 11.2882 23.4353 11.0972 23.4353C9.88867 23.4353 8.6167 23.9637 8.6167 25.5589C8.6167 26.815 9.44958 27.1027 9.96743 27.1027C10.9543 27.1027 11.3788 26.4476 11.4025 26.4447L11.3579 26.9931H12.5894L13.1386 23.0472C13.1379 21.3751 11.7119 21.3203 11.2164 21.3203ZM11.5168 24.532C11.5426 24.7741 11.3676 25.9035 10.5257 25.9035C10.0915 25.9035 9.97788 25.5624 9.97788 25.3623C9.97788 24.9699 10.1863 24.4992 11.2122 24.4992C11.4513 24.4992 11.4764 24.5263 11.5168 24.532Z" fill="#DFDFDF"/>
<path d="M14.4472 27.0745C14.7623 27.0745 16.5632 27.1578 16.5632 25.2536C16.5632 23.4733 14.8961 23.8251 14.8961 23.1094C14.8961 22.7555 15.1672 22.6415 15.6648 22.6415C15.8614 22.6415 16.6211 22.7063 16.6211 22.7063L16.7981 21.4409C16.7981 21.4409 16.3067 21.3291 15.5073 21.3291C14.4709 21.3291 13.4206 21.7514 13.4206 23.1991C13.4206 24.8413 15.1728 24.6746 15.1728 25.3654C15.1728 25.8269 14.6835 25.8653 14.3057 25.8653C13.6534 25.8653 13.0672 25.6353 13.0644 25.646L12.877 26.8979C12.9097 26.9093 13.2735 27.0745 14.4472 27.0745Z" fill="#DFDFDF"/>
<path d="M42.2578 20.1845L41.956 22.1022C41.956 22.1022 41.4291 21.3581 40.6053 21.3581C39.3228 21.3581 38.2544 22.9404 38.2544 24.7584C38.2544 25.9334 38.8238 27.0821 39.9892 27.0821C40.8276 27.0821 41.2911 26.4839 41.2911 26.4839L41.2305 26.9945H42.5909L43.6601 20.1816L42.2578 20.1845ZM41.6082 23.926C41.6082 24.6815 41.2423 25.6913 40.484 25.6913C39.9794 25.6913 39.7445 25.2591 39.7445 24.579C39.7445 23.4688 40.231 22.7346 40.845 22.7346C41.3496 22.7353 41.6082 23.0899 41.6082 23.926Z" fill="#DFDFDF"/>
<path d="M3.64021 27.0006L4.4926 21.857L4.61806 27.0006H5.58197L7.38154 21.857L6.58351 27.0006H8.01509L9.11909 20.1807H6.90412L5.52412 24.3651L5.45233 20.1807H3.4116L2.29297 27.0006H3.64021Z" fill="#DFDFDF"/>
<path d="M25.1977 27.0118C25.6047 24.6411 25.68 22.7148 26.6523 23.0659C26.8223 22.1487 26.9861 21.7941 27.1722 21.4052C27.1722 21.4052 27.0851 21.3867 26.9018 21.3867C26.2766 21.3867 25.8124 22.2633 25.8124 22.2633L25.9365 21.4586H24.6331L23.7612 27.0118H25.1977Z" fill="#DFDFDF"/>
<path d="M33.8971 21.3203C32.9373 21.3203 32.202 21.6344 32.202 21.6344L31.9999 22.8692C31.9999 22.8692 32.6056 22.6171 33.5242 22.6171C34.0455 22.6171 34.4268 22.6769 34.4268 23.1106C34.4268 23.3741 34.3794 23.4716 34.3794 23.4716C34.3794 23.4716 33.9688 23.4353 33.7779 23.4353C32.5679 23.4353 31.2974 23.9637 31.2974 25.5589C31.2974 26.815 32.1309 27.1027 32.6481 27.1027C33.6357 27.1027 34.0602 26.4476 34.0832 26.4447L34.0385 26.9931H35.2715L35.8207 23.0472C35.8193 21.3751 34.394 21.3203 33.8971 21.3203ZM34.1968 24.532C34.2232 24.7741 34.0504 25.9035 33.2057 25.9035C32.7715 25.9035 32.6592 25.5624 32.6592 25.3623C32.6592 24.9699 32.8676 24.4992 33.8922 24.4992C34.1312 24.4992 34.1563 24.5263 34.1968 24.532Z" fill="#DFDFDF"/>
<path d="M36.9436 27.0118C37.352 24.6411 37.4266 22.7148 38.3995 23.0659C38.5696 22.1487 38.7334 21.7941 38.9195 21.4052C38.9195 21.4052 38.8317 21.3867 38.6491 21.3867C38.0218 21.3867 37.559 22.2633 37.559 22.2633L37.6844 21.4586H36.3804L35.5078 27.0118H36.9436Z" fill="#DFDFDF"/>
<path d="M16.7485 25.9002C16.7485 26.7441 17.2099 27.1201 17.863 27.1144C18.3732 27.1087 18.7725 26.9641 18.9126 26.9257L19.0876 25.708C18.9914 25.708 18.8506 25.75 18.7258 25.75C18.24 25.75 18.1857 25.4844 18.217 25.2892L18.6101 22.8046H19.3503L19.5294 21.4566H18.8318L18.9747 20.6191" fill="#DCE5E5"/>
<path d="M20.0415 24.6048C20.0415 26.63 20.6604 27.1114 21.7721 27.1114C22.7987 27.1114 23.249 26.8757 23.249 26.8757L23.4964 25.4942C23.4964 25.4942 22.7151 25.8474 22.0097 25.8474C20.5078 25.8474 20.7712 24.7002 20.7712 24.7002H23.6149C23.6149 24.7002 23.7989 23.7716 23.7989 23.3927C23.7989 22.4492 23.3389 21.2998 21.8034 21.2998C20.3963 21.2984 20.0415 22.8508 20.0415 24.6048ZM21.8097 22.5809C22.5987 22.5809 22.6914 23.4896 22.6914 23.5629H20.8995C20.8988 23.4696 21.0451 22.5809 21.8097 22.5809Z" fill="#DCE5E5"/>
<path d="M30.668 26.9266L30.9182 25.3627C30.9182 25.3627 30.2324 25.7174 29.7613 25.7174C28.7688 25.7174 28.3708 24.9397 28.3708 24.1073C28.3708 22.4153 29.2246 21.4838 30.1753 21.4838C30.8883 21.4838 31.4605 21.8947 31.4605 21.8947L31.6891 20.3772C31.6891 20.3772 30.8402 20.0254 30.1132 20.0254C28.4977 20.0254 27.6118 21.4596 27.6118 24.155C27.6118 25.941 27.7749 27.1217 29.4441 27.1217C29.9167 27.1217 30.668 26.9266 30.668 26.9266Z" fill="#DCE5E5"/>
<path d="M9.31855 22.8699C9.31855 22.8699 9.92631 22.6178 10.8435 22.6178C11.3635 22.6178 11.7447 22.6776 11.7447 23.1113C11.7447 23.3748 11.6987 23.4723 11.6987 23.4723C11.6987 23.4723 11.2882 23.436 11.0972 23.436C9.88867 23.436 8.6167 23.9644 8.6167 25.5596C8.6167 26.8158 9.44958 27.1035 9.96743 27.1035C10.9543 27.1035 11.3788 26.4483 11.4025 26.4455L11.3579 26.9938H12.5894L13.1386 23.0479C13.1386 21.3744 11.7126 21.3203 11.2171 21.3203M12.2033 24.532C12.2291 24.7741 11.3683 25.9035 10.5264 25.9035C10.0922 25.9035 9.97858 25.5624 9.97858 25.3623C9.97858 24.9699 10.187 24.4992 11.2129 24.4992C11.4513 24.4992 12.1622 24.5263 12.2033 24.532Z" fill="#DCE5E5"/>
<path d="M12.8774 26.8969C12.9109 26.909 13.274 27.0735 14.4477 27.0735C14.7627 27.0735 16.5637 27.1568 16.5637 25.2526C16.5637 23.4723 14.8966 23.8241 14.8966 23.1084C14.8966 22.7545 15.1677 22.6406 15.6653 22.6406C15.8619 22.6406 16.6216 22.7054 16.6216 22.7054L16.7986 21.4399C16.7986 21.4399 16.3072 21.3281 15.5078 21.3281C14.4714 21.3281 14.1069 21.7504 14.1069 23.1982C14.1069 24.8403 15.1726 24.6737 15.1726 25.3644C15.1726 25.8259 14.6833 25.8643 14.3055 25.8643" fill="#DCE5E5"/>
<path d="M41.9565 22.1022C41.9565 22.1022 41.4296 21.3581 40.6058 21.3581C39.3234 21.3581 38.9407 22.9404 38.9407 24.7584C38.9407 25.9334 38.8243 27.0821 39.9897 27.0821C40.8281 27.0821 41.2916 26.4839 41.2916 26.4839L41.231 26.9945H42.5915L43.6606 20.1816M41.9015 23.926C41.9015 24.6815 41.2428 25.6913 40.4845 25.6913C39.9799 25.6913 39.745 25.2591 39.745 24.579C39.745 23.4688 40.2315 22.7346 40.8455 22.7346C41.3502 22.7353 41.9015 23.0899 41.9015 23.926Z" fill="#DCE5E5"/>
<path d="M3.64042 27.0006L4.49281 21.857L4.61827 27.0006H5.58218L7.38175 21.857L6.58372 27.0006H8.0153L9.1193 20.1807H7.48979L5.52433 24.3651L5.45254 20.1807H4.67472L2.29248 27.0006H3.64042Z" fill="#DCE5E5"/>
<path d="M23.7612 27.0118H25.1984C25.6054 24.6411 25.6807 22.7148 26.653 23.0659C26.823 22.1487 26.9868 21.7941 27.1729 21.4052C27.1729 21.4052 27.0858 21.3867 26.9025 21.3867C26.2773 21.3867 25.8131 22.2633 25.8131 22.2633L25.9372 21.4586" fill="#DCE5E5"/>
<path d="M31.9999 22.8699C31.9999 22.8699 32.6056 22.6178 33.5242 22.6178C34.0455 22.6178 34.4268 22.6776 34.4268 23.1113C34.4268 23.3748 34.3794 23.4723 34.3794 23.4723C34.3794 23.4723 33.9688 23.436 33.7779 23.436C32.5679 23.436 31.2974 23.9644 31.2974 25.5596C31.2974 26.8158 32.1309 27.1035 32.6481 27.1035C33.6357 27.1035 34.0602 26.4483 34.0832 26.4455L34.0385 26.9938H35.2715L35.8207 23.0479C35.8207 21.3744 34.3954 21.3203 33.8985 21.3203M34.8833 24.532C34.9098 24.7741 34.0511 25.9035 33.2064 25.9035C32.7722 25.9035 32.6599 25.5624 32.6599 25.3623C32.6599 24.9699 32.8683 24.4992 33.8929 24.4992C34.1312 24.4992 34.8422 24.5263 34.8833 24.532Z" fill="#DCE5E5"/>
<path d="M35.5073 27.0118H36.9438C37.3522 24.6411 37.4268 22.7148 38.3998 23.0659C38.5698 22.1487 38.7336 21.7941 38.9197 21.4052C38.9197 21.4052 38.8319 21.3867 38.6493 21.3867C38.022 21.3867 37.5592 22.2633 37.5592 22.2633L37.6847 21.4586" fill="#DCE5E5"/>
</svg>
