<svg width="53" height="35" viewBox="0 0 53 35" fill="none" xmlns="http://www.w3.org/2000/svg">
<path d="M19.6592 24.6276L22.0166 10.4961H25.7872L23.4281 24.6276H19.6592Z" fill="#0E4595"/>
<path d="M37.0508 10.8006C36.3038 10.5143 35.1332 10.207 33.6713 10.207C29.9454 10.207 27.321 12.1237 27.2986 14.8706C27.2776 16.9011 29.1723 18.0339 30.6026 18.7098C32.0703 19.4026 32.5637 19.8443 32.5567 20.4628C32.5473 21.4101 31.3846 21.8427 30.3007 21.8427C28.7916 21.8427 27.9898 21.6285 26.7515 21.101L26.2655 20.8764L25.7363 24.0398C26.617 24.4344 28.2456 24.7761 29.9366 24.7938C33.9003 24.7938 36.4734 22.8991 36.5027 19.9657C36.5167 18.3581 35.5122 17.1348 33.3367 16.1262C32.0188 15.4725 31.2117 15.0363 31.2202 14.3743C31.2202 13.7869 31.9034 13.1588 33.3797 13.1588C34.6126 13.1393 35.5059 13.4139 36.2019 13.7002L36.5397 13.8633L37.0508 10.8006Z" fill="#0E4595"/>
<path d="M46.7541 10.4961H43.8405C42.9379 10.4961 42.2624 10.7477 41.866 11.668L36.2661 24.6184H40.2256C40.2256 24.6184 40.8729 22.8772 41.0194 22.4949C41.4521 22.4949 45.2986 22.5009 45.8484 22.5009C45.9612 22.9957 46.3072 24.6184 46.3072 24.6184H49.8061L46.7541 10.4961ZM42.1313 19.6211C42.4432 18.8069 43.6337 15.6707 43.6337 15.6707C43.6115 15.7083 43.9433 14.8526 44.1336 14.322L44.3885 15.5404C44.3885 15.5404 45.1105 18.9136 45.2614 19.6209H42.1313V19.6211Z" fill="#0E4595"/>
<path d="M3.24202 10.4961L3.19385 10.7901C4.68442 11.1586 6.01571 11.6921 7.18127 12.3557L10.527 24.6049L14.5165 24.6004L20.4528 10.4961H16.4583L12.7668 20.1327L12.3736 18.1743C12.3552 18.1137 12.3352 18.0531 12.3147 17.9924L11.0314 11.6891C10.8032 10.7943 10.1412 10.5273 9.32225 10.4961H3.24202Z" fill="#0E4595"/>
</svg>
