<svg width="40" height="40" viewBox="0 0 40 40" fill="none" xmlns="http://www.w3.org/2000/svg">
<path d="M9.71169 9.71336C9.13836 10.295 8.76169 11.1117 8.55169 12.6634C8.33669 14.2717 8.33502 16.4017 8.33502 19.4667V20.5334C8.33502 23.5934 8.33669 25.7217 8.55169 27.3284C8.76002 28.8817 9.13836 29.7034 9.71336 30.29C10.2967 30.8617 11.1134 31.24 12.6634 31.4484C14.2717 31.6634 16.4017 31.6667 19.4667 31.6667H20.5334C23.5934 31.6667 25.7217 31.6634 27.33 31.4484C28.8817 31.24 29.7034 30.8617 30.29 30.2867C30.8617 29.705 31.24 28.8884 31.4484 27.3367C31.665 25.7284 31.6667 23.5984 31.6667 20.5334V19.4667C31.6667 16.4067 31.6634 14.2784 31.45 12.6717C31.24 11.1184 30.8617 10.2967 30.2867 9.71002C29.705 9.13836 28.8884 8.76002 27.3367 8.55169C25.7284 8.33669 23.5984 8.33336 20.5334 8.33336H19.4667C16.4067 8.33336 14.2784 8.33669 12.6717 8.55169C11.1184 8.76002 10.2984 9.13836 9.71169 9.71336ZM19.4667 5.00002H20.5334C22.9417 5.00002 25.3867 4.92836 27.7784 5.24836C29.705 5.50669 31.3367 6.05836 32.64 7.34836L32.6533 7.36336C33.9417 8.67002 34.495 10.3017 34.7533 12.23C35.0717 14.6184 35 17.0617 35 19.4667V20.5334C35 22.94 35.0733 25.385 34.7517 27.7784C34.495 29.705 33.9417 31.3367 32.6517 32.64L32.6367 32.6534C31.3317 33.9417 29.7 34.4934 27.77 34.7534C25.3817 35.0717 22.9384 35 20.5334 35H19.4667C17.06 35 14.615 35.0717 12.2234 34.7517C10.295 34.4934 8.66336 33.9417 7.36169 32.6517L7.34669 32.6367C6.06002 31.33 5.50669 29.6984 5.24836 27.77C4.92836 25.3834 5.00002 22.94 5.00002 20.5334V19.4667C5.00002 17.06 4.92836 14.615 5.25002 12.2217C5.50669 10.295 6.06002 8.66336 7.35002 7.36002L7.36336 7.34669C8.67002 6.05836 10.3017 5.50669 12.23 5.24669C14.62 4.93002 17.0634 5.00002 19.4667 5.00002ZM10.06 14.13C10.22 21.93 14.12 26.61 20.96 26.61H21.36V22.15C23.87 22.4 25.77 24.24 26.53 26.61H30.08C29.7158 25.2633 29.0703 24.0091 28.1861 22.9301C27.3018 21.8511 26.1989 20.9717 24.95 20.35C26.0692 19.6686 27.0359 18.7636 27.7895 17.6916C28.5431 16.6197 29.0676 15.4038 29.33 14.12H26.11C25.41 16.6 23.33 18.85 21.36 19.06V14.13H18.13V22.77C16.13 22.27 13.61 19.85 13.5 14.13H10.06Z" fill="#333333"/>
</svg>
